<svg width="50" height="50" viewBox="0 0 50 50" fill="none" xmlns="http://www.w3.org/2000/svg">
<rect width="50" height="50" rx="10" fill="#A08EC2"/>
<path d="M23.856 11.088C23.664 11.408 23.344 11.6 22.896 11.664C22.48 11.696 22.128 11.824 21.84 12.048C21.584 13.808 21.408 15.552 21.312 17.28C21.248 19.008 21.056 20.976 20.736 23.184C20.224 23.28 19.712 23.408 19.2 23.568C18.72 23.696 18.224 23.824 17.712 23.952C16.592 24.272 15.44 24.576 14.256 24.864C13.104 25.12 11.872 25.232 10.56 25.2C10.432 27.312 10.352 29.392 10.32 31.44C10.288 33.488 10.256 35.344 10.224 37.008C10.224 37.2 10.208 37.408 10.176 37.632C10.176 37.824 10.176 38.032 10.176 38.256C10.112 39.152 10.096 40.048 10.128 40.944C10.192 41.808 10.48 42.56 10.992 43.2C10.768 44.096 10.432 44.576 9.984 44.64C9.536 44.704 9.04 44.56 8.496 44.208C8.016 43.856 7.536 43.376 7.056 42.768C6.576 42.192 6.16 41.616 5.808 41.04C5.456 40.464 5.216 40 5.088 39.648C5.248 39.584 5.424 39.536 5.616 39.504C5.84 39.472 6.016 39.408 6.144 39.312C6.176 37.872 6.224 36.4 6.288 34.896C6.352 33.392 6.432 31.872 6.528 30.336C6.624 28.416 6.72 26.512 6.816 24.624C6.912 22.704 6.944 20.88 6.912 19.152C6.912 18.928 6.848 18.672 6.72 18.384C6.624 18.064 6.544 17.696 6.48 17.28C6.416 16.896 6.384 16.528 6.384 16.176C6.384 15.792 6.384 15.424 6.384 15.072C6.384 14.592 6.368 14.16 6.336 13.776C6.336 13.36 6.272 12.992 6.144 12.672C6.048 12.48 5.936 12.304 5.808 12.144C5.68 11.952 5.552 11.776 5.424 11.616C5.2 11.36 4.992 11.104 4.8 10.848C4.64 10.56 4.576 10.224 4.608 9.84C6.304 9.488 8 9.104 9.696 8.688C11.392 8.24 13.168 7.936 15.024 7.776C15.28 7.648 15.36 7.52 15.264 7.392C15.2 7.264 15.28 7.136 15.504 7.008C16.976 6.88 18.352 7.104 19.632 7.68C20.944 8.224 22.112 8.784 23.136 9.36C23.168 9.36 23.2 9.376 23.232 9.408C23.296 9.728 23.392 10.016 23.52 10.272C23.648 10.528 23.76 10.8 23.856 11.088ZM44.592 8.784C44.56 9.104 44.368 9.536 44.016 10.08C43.664 10.624 42.976 11.024 41.952 11.28C41.408 12.016 41.104 12.976 41.04 14.16C40.976 15.344 40.96 16.496 40.992 17.616C40.992 18.128 40.992 18.624 40.992 19.104C40.992 19.552 40.96 19.936 40.896 20.256C40.96 20.32 41.024 20.4 41.088 20.496C41.184 20.56 41.264 20.624 41.328 20.688C40.976 21.776 40.832 23.12 40.896 24.72C40.96 26.288 41.056 27.728 41.184 29.04C41.216 29.488 41.248 29.92 41.28 30.336C41.312 30.752 41.328 31.104 41.328 31.392C41.328 31.84 41.344 32.304 41.376 32.784C41.408 33.264 41.44 33.76 41.472 34.272C41.6 35.872 41.648 37.552 41.616 39.312C41.616 41.04 41.216 42.736 40.416 44.4C40.032 44.624 39.632 44.848 39.216 45.072C38.832 45.296 38.512 45.584 38.256 45.936C37.456 45.392 36.496 44.928 35.376 44.544C34.288 44.16 33.232 43.712 32.208 43.2C31.184 42.72 30.352 42.08 29.712 41.28C29.584 41.12 29.36 40.8 29.04 40.32C28.72 39.84 28.48 39.488 28.32 39.264C28.64 39.232 29.04 39.248 29.52 39.312C30.032 39.376 30.56 39.44 31.104 39.504C32.032 39.632 32.992 39.744 33.984 39.84C35.008 39.904 35.904 39.824 36.672 39.6C37.024 39.248 37.216 38.768 37.248 38.16C37.312 37.552 37.36 36.992 37.392 36.48C37.68 32.768 37.712 29.184 37.488 25.728C37.296 22.24 37.072 18.928 36.816 15.792C36.72 14.576 36.624 13.392 36.528 12.24C36.432 11.056 36.352 9.904 36.288 8.784C35.584 8.88 34.736 8.96 33.744 9.024C32.784 9.088 31.84 9.2 30.912 9.36C29.984 9.488 29.232 9.76 28.656 10.176C28.784 10.784 28.848 11.472 28.848 12.24C28.88 12.976 28.912 13.584 28.944 14.064C30.544 13.904 31.984 13.92 33.264 14.112C34.544 14.304 35.424 15.008 35.904 16.224C34.752 16.192 33.648 16.256 32.592 16.416C31.568 16.576 30.4 16.816 29.088 17.136C28.992 17.456 28.928 17.952 28.896 18.624C28.864 19.296 28.784 19.888 28.656 20.4C28.944 20.4 29.232 20.4 29.52 20.4C29.84 20.4 30.144 20.4 30.432 20.4C31.36 20.368 32.24 20.384 33.072 20.448C33.936 20.512 34.704 20.736 35.376 21.12C36.048 21.504 36.592 22.144 37.008 23.04C36.592 23.072 36.128 23.088 35.616 23.088C35.136 23.088 34.64 23.088 34.128 23.088C32.912 23.056 31.728 23.072 30.576 23.136C29.424 23.168 28.576 23.392 28.032 23.808C26.624 23.104 25.488 22.224 24.624 21.168H25.392C25.296 20.784 25.264 20.368 25.296 19.92C25.36 19.472 25.424 19.008 25.488 18.528C25.52 18.336 25.552 18.128 25.584 17.904C25.616 17.68 25.632 17.472 25.632 17.28C25.664 16.768 25.616 16.32 25.488 15.936C25.36 15.52 25.072 15.2 24.624 14.976C24.656 14.848 24.736 14.784 24.864 14.784C25.024 14.752 25.168 14.72 25.296 14.688C25.52 14.688 25.648 14.672 25.68 14.64C25.776 13.232 25.616 12.08 25.2 11.184C24.816 10.288 24.256 9.536 23.52 8.928C23.872 8.64 24.192 8.448 24.48 8.352C24.768 8.224 24.976 8 25.104 7.68C26.192 7.36 27.376 7.152 28.656 7.056C29.968 6.96 31.264 6.848 32.544 6.72C33.856 6.592 35.04 6.352 36.096 6C37.344 6.064 38.4 6.224 39.264 6.48C40.16 6.736 41.024 7.056 41.856 7.44C42.688 7.824 43.6 8.272 44.592 8.784ZM17.472 21.456C17.472 20.912 17.472 20.352 17.472 19.776C17.504 19.2 17.52 18.624 17.52 18.048C17.552 16.608 17.552 15.248 17.52 13.968C17.52 12.656 17.344 11.584 16.992 10.752C15.84 10.56 14.608 10.512 13.296 10.608C12.016 10.704 10.992 11.12 10.224 11.856C10.224 12.304 10.48 12.672 10.992 12.96C10.768 13.216 10.64 13.52 10.608 13.872C10.576 14.224 10.56 14.592 10.56 14.976C10.56 15.104 10.56 15.232 10.56 15.36C10.56 15.488 10.56 15.616 10.56 15.744C10.752 15.712 10.928 15.68 11.088 15.648C11.28 15.616 11.456 15.584 11.616 15.552C12.768 15.36 13.792 15.264 14.688 15.264C15.616 15.264 16.352 15.68 16.896 16.512C16.576 16.608 16.256 16.72 15.936 16.848C15.648 16.944 15.344 17.056 15.024 17.184C14.224 17.472 13.44 17.744 12.672 18C11.904 18.224 11.184 18.304 10.512 18.24C10.544 18.592 10.544 18.944 10.512 19.296C10.512 19.616 10.512 19.92 10.512 20.208C10.48 20.688 10.464 21.152 10.464 21.6C10.496 22.016 10.576 22.432 10.704 22.848C11.056 22.752 11.392 22.656 11.712 22.56C12.064 22.464 12.416 22.368 12.768 22.272C13.504 22.048 14.256 21.84 15.024 21.648C15.792 21.456 16.608 21.392 17.472 21.456Z" fill="#F7F7F7"/>
</svg>
